<?xml version="1.0" standalone="no"?>
<!DOCTYPE svg PUBLIC "-//W3C//DTD SVG 20010904//EN"
 "http://www.w3.org/TR/2001/REC-SVG-20010904/DTD/svg10.dtd">
<svg version="1.0" xmlns="http://www.w3.org/2000/svg"
 width="512.000000pt" height="512.000000pt" viewBox="0 0 512.000000 512.000000"
 preserveAspectRatio="xMidYMid meet">
<metadata>
Created by potrace 1.16, written by Peter Selinger 2001-2019
</metadata>
<g transform="translate(0.000000,512.000000) scale(0.100000,-0.100000)"
fill="#333333" stroke="#333333" stroke-width="22">
<path d="M3757 4273 c-274 -267 -496 -486 -495 -487 2 0 105 -102 229 -224
l226 -224 478 496 477 497 -207 214 c-114 118 -208 215 -209 214 0 0 -225
-219 -499 -486z"/>
<path d="M1135 4531 c-93 -81 -169 -151 -168 -155 3 -7 2670 -2734 3042 -3109
l235 -237 155 154 154 154 -1619 1670 c-891 919 -1621 1670 -1624 1671 -3 0
-81 -67 -175 -148z"/>
<path d="M2021 4266 l-94 -94 1096 -1135 c603 -624 1100 -1137 1104 -1140 4
-3 54 38 110 91 l102 97 -1107 1137 c-609 625 -1109 1137 -1112 1137 -3 1 -48
-41 -99 -93z"/>
<path d="M2816 3960 l-77 -90 531 -565 c292 -311 534 -565 538 -565 4 0 47 40
96 89 l89 89 -542 566 c-298 311 -546 566 -550 566 -5 0 -43 -40 -85 -90z"/>
<path d="M2097 2863 l-107 -108 111 -111 111 -111 -932 -887 -931 -887 124
-137 c68 -75 128 -135 133 -133 5 3 423 403 928 890 506 487 924 887 931 889
6 1 61 -49 123 -112 l112 -115 97 126 96 125 -339 339 c-186 186 -341 339
-344 339 -3 0 -53 -48 -113 -107z"/>
</g>
</svg>
